<?xml version="1.0" encoding="iso-8859-1"?>
<!-- Generator: Adobe Illustrator 19.0.0, SVG Export Plug-In . SVG Version: 6.00 Build 0)  -->
<svg version="1.1" id="Capa_1" xmlns="http://www.w3.org/2000/svg" xmlns:xlink="http://www.w3.org/1999/xlink" x="0px" y="0px"
	 viewBox="0 0 468 468" style="enable-background:new 0 0 468 468;" xml:space="preserve">
<g>
	<rect x="269.2" y="294" style="fill:#FFE34C;" width="64.8" height="140.4"/>
	<circle style="fill:#FFE34C;" cx="403.6" cy="114" r="57.2"/>
</g>
<path d="M372.8,129.2c-1.2-0.4-2-0.8-2.8-1.2l-1.2-0.8v-1.6l0.8-7.6l0.4-2.8l2.4,1.2c0.4,0,0.8,0.4,1.2,0.4c0.4,0,0.8,0.4,1.2,0.4
	c0.8,0.4,2,0.8,2.8,0.8c0.8,0.4,2,0.4,2.8,0.8c0.8,0,1.6,0.4,2.4,0.4s1.6,0,2.4,0.4c0.4,0,1.2,0,1.6,0l0,0c0.4,0,1.2,0,1.6,0l0,0
	c0.8,0,1.6,0,2-0.4l0,0c0.8,0,1.2-0.4,2-0.8l0,0c0.8-0.4,1.2-0.8,1.6-1.2l0,0c0.4-0.4,0.8-0.8,1.2-1.6l0,0c0.4-0.4,0.4-1.2,0.8-1.6
	c0-0.8,0-1.2,0-2l0,0c0-0.8,0-1.2-0.4-2l0,0c-0.4-0.4-0.4-1.2-0.8-1.6c-0.4-0.4-0.8-0.8-1.2-1.2c-0.4-0.4-0.8-0.8-1.6-1.2
	c-0.4-0.4-1.2-0.8-1.6-0.8c-0.4-0.4-1.2-0.4-2-0.8l0,0c-1.2-0.4-2.4-0.8-3.6-1.6l0,0c-1.2-0.4-2.4-1.2-3.6-1.6s-2.4-1.2-3.2-2
	c-0.8-0.8-2-1.2-2.8-2.4l0,0c-0.8-0.8-1.6-1.6-2.4-2.4l0,0c-0.8-0.8-1.2-2-2-2.8l0,0c-0.4-1.2-0.8-2.4-1.2-3.6
	c-0.4-1.2-0.4-2.4-0.4-3.6l0,0c0-1.6,0-2.8,0.4-4.4c0.4-1.2,0.8-2.8,1.2-4c0.4-1.2,1.2-2.4,2-3.6s1.6-2,2.8-3.2l0,0
	c1.2-0.8,2-1.6,3.2-2.4l0,0c1.2-0.8,2.4-1.2,3.6-1.6h0.4v-6.8v-2h2h6.4h2v2v6.4h0.8c0.8,0,1.2,0.4,2,0.4s1.6,0.4,2,0.4
	s1.2,0.4,1.6,0.4l0,0c0.4,0,0.8,0.4,1.6,0.4l1.6,0.4l-0.4,1.6l-0.8,7.2l-0.4,2.4l-2.4-0.8c-0.4,0-0.8-0.4-1.6-0.4l0,0
	c-0.4,0-0.8-0.4-1.6-0.4l0,0c-0.8,0-1.6-0.4-2.4-0.4s-1.6-0.4-2.4-0.4l0,0c-0.4,0-1.2,0-1.6,0l0,0c-0.4,0-0.8,0-1.6,0l0,0
	c-0.8,0-1.6,0-2.4,0.4l0,0c-0.8,0.4-1.2,0.4-2,0.8c-0.4,0.4-1.2,0.8-1.6,1.2c-0.4,0.4-0.8,1.2-0.8,1.6l0,0c-0.4,0.4-0.4,1.2-0.4,2
	s0,1.2,0,2s0.4,1.2,0.4,2c0.4,0.4,0.4,1.2,0.8,1.6l0,0c0.4,0.4,0.8,0.8,1.2,1.2l0,0c0.4,0.4,1.2,0.8,1.6,1.2l0,0
	c0.4,0.4,1.2,0.4,1.6,0.8c0.8,0.4,1.2,0.4,2,0.8l0,0c1.2,0.4,2.4,0.8,3.6,1.6c1.2,0.4,2.4,1.2,3.6,1.6s2,1.2,3.2,2s2,1.6,2.8,2.4
	s1.6,1.6,2.4,2.4l0,0c0.8,0.8,1.2,2,1.6,2.8c0.4,1.2,0.8,2.4,1.2,3.2l0,0c0.4,1.2,0.4,2.4,0.4,3.6l0,0c0,1.6,0,2.8-0.4,4.4l0,0
	c-0.4,1.6-0.8,2.8-1.2,4c-0.4,1.2-1.2,2.4-2,3.6c-0.8,1.2-1.6,2-2.8,2.8l0,0c-1.2,0.8-2.4,1.6-3.6,2.4c-1.2,0.8-2.8,1.2-4,1.6h-0.4
	v6.8v2h-2H384h-2v-2V130h-0.8c-1.2,0-2.4-0.4-3.6-0.4c-1.2-0.4-2.4-0.4-3.2-0.8l0,0C374.8,129.6,373.6,129.2,372.8,129.2"/>
<g>
	<path style="fill:#231F20;" d="M388.4,162.4c35.6,0,64.4-28.8,64.4-64.4S424,33.6,388.4,33.6S324,62.8,324,98.4
		S352.8,162.4,388.4,162.4z M388.4,48.4c27.6,0,50,22.4,50,50s-22.4,50-50,50s-50-22.4-50-50S360.8,48.4,388.4,48.4z"/>
	<path style="fill:#231F20;" d="M82.4,272c1.6,0,2.8-0.4,4-1.2l95.6-68.4l92.4,38.4c2.4,0.8,5.2,0.8,7.2-0.8l74.4-58.8
		c3.2-2.4,3.6-6.8,1.2-10c-2.4-3.2-6.8-3.6-10-1.2L276,226.4L184,188c-2.4-0.8-4.8-0.8-6.8,0.8l-98.8,70.4c-3.2,2.4-4,6.8-1.6,10
		C78,271.2,80.4,272,82.4,272z"/>
	<path style="fill:#231F20;" d="M460.8,412.4H428v-204c0-4-3.2-7.2-7.2-7.2H356c-4,0-7.2,3.2-7.2,7.2v204h-24V278.8
		c0-4-3.2-7.2-7.2-7.2h-64.4c-4,0-7.2,3.2-7.2,7.2v133.6h-24v-144c0-4-3.2-7.2-7.2-7.2H150c-4,0-7.2,3.2-7.2,7.2v144h-24V309.6
		c0-4-3.2-7.2-7.2-7.2H47.2c-4,0-7.2,3.2-7.2,7.2v102.8H7.2c-4,0-7.2,3.2-7.2,7.2s3.2,7.2,7.2,7.2h40l0,0H112l0,0h38l0,0h64.8l0,0
		h38l0,0H318l0,0h38l0,0h64.8l0,0h40c4,0,7.2-3.2,7.2-7.2S464.4,412.4,460.8,412.4z M363.2,215.2H414v197.2h-50.8V215.2z M260,286
		h50.8v126.4H260V286z M157.2,275.2H208V412h-50.8V275.2z M54.4,316.4h50.8V412H54.4V316.4z"/>
</g>
<g>
</g>
<g>
</g>
<g>
</g>
<g>
</g>
<g>
</g>
<g>
</g>
<g>
</g>
<g>
</g>
<g>
</g>
<g>
</g>
<g>
</g>
<g>
</g>
<g>
</g>
<g>
</g>
<g>
</g>
</svg>
