<?xml version="1.0" encoding="iso-8859-1"?>
<!-- Generator: Adobe Illustrator 19.0.0, SVG Export Plug-In . SVG Version: 6.00 Build 0)  -->
<svg version="1.1" id="Layer_1" xmlns="http://www.w3.org/2000/svg" xmlns:xlink="http://www.w3.org/1999/xlink" x="0px" y="0px"
	 viewBox="0 0 512 512" style="enable-background:new 0 0 512 512;" xml:space="preserve">
<polygon style="fill:#AAAAAA;" points="14.713,197.889 14.713,314.11 198.365,314.11 314.584,197.889 "/>
<path style="fill:#666666;" d="M497.287,183.176H314.584H14.713C6.587,183.176,0,189.763,0,197.889V314.11
	c0,8.126,6.587,14.713,14.713,14.713h183.652c0.48,0,0.959-0.025,1.436-0.071c0.122-0.012,0.24-0.037,0.36-0.052
	c0.356-0.044,0.712-0.09,1.065-0.159c0.104-0.021,0.205-0.053,0.307-0.075c0.366-0.081,0.731-0.166,1.092-0.275
	c0.072-0.022,0.14-0.052,0.212-0.074c0.385-0.124,0.769-0.255,1.146-0.41c0.046-0.019,0.09-0.044,0.135-0.063
	c0.394-0.168,0.783-0.347,1.164-0.55c0.046-0.024,0.087-0.053,0.132-0.078c0.372-0.205,0.742-0.419,1.099-0.658
	c0.106-0.071,0.203-0.152,0.306-0.225c0.288-0.203,0.578-0.406,0.855-0.633c0.378-0.309,0.743-0.639,1.092-0.986l111.912-111.912
	h161.897v86.796H335.938c-8.124,0-14.713,6.587-14.713,14.713s6.588,14.713,14.713,14.713h161.349
	c8.124,0,14.713-6.587,14.713-14.713V197.89C512,189.763,505.412,183.176,497.287,183.176z M29.425,212.601h249.64l-86.796,86.796
	H29.425V212.601z"/>
<g>
</g>
<g>
</g>
<g>
</g>
<g>
</g>
<g>
</g>
<g>
</g>
<g>
</g>
<g>
</g>
<g>
</g>
<g>
</g>
<g>
</g>
<g>
</g>
<g>
</g>
<g>
</g>
<g>
</g>
</svg>
